<mxfile host="app.diagrams.net" agent="Mozilla/5.0 (Windows NT 10.0; Win64; x64; rv:138.0) Gecko/20100101 Firefox/138.0" version="26.2.14">
  <diagram name="Page-1" id="GRl2jwCY7s5heT_LO00o">
    <mxGraphModel dx="570" dy="312" grid="1" gridSize="10" guides="1" tooltips="1" connect="1" arrows="1" fold="1" page="1" pageScale="1" pageWidth="850" pageHeight="1100" math="0" shadow="0">
      <root>
        <mxCell id="0" />
        <mxCell id="1" parent="0" />
        <mxCell id="K-P_sbO5GFcDNKbz2QmL-44" value="" style="rounded=0;whiteSpace=wrap;html=1;" vertex="1" parent="1">
          <mxGeometry x="20" y="20" width="420" height="420" as="geometry" />
        </mxCell>
        <mxCell id="K-P_sbO5GFcDNKbz2QmL-1" value="" style="rounded=0;whiteSpace=wrap;html=1;" vertex="1" parent="1">
          <mxGeometry x="40" y="40" width="400" height="380" as="geometry" />
        </mxCell>
        <mxCell id="K-P_sbO5GFcDNKbz2QmL-14" value="deklariere Array &quot;ergebnis&quot; mit 10 Elementen, setze alle Elemente auf 0" style="rounded=0;whiteSpace=wrap;html=1;align=left;" vertex="1" parent="1">
          <mxGeometry x="40" y="40" width="400" height="20" as="geometry" />
        </mxCell>
        <mxCell id="K-P_sbO5GFcDNKbz2QmL-15" value="deklariere Array &quot;anzahl&quot; mit 10 Elementen, setze alle Elemente auf 0" style="rounded=0;whiteSpace=wrap;html=1;align=left;" vertex="1" parent="1">
          <mxGeometry x="40" y="60" width="400" height="20" as="geometry" />
        </mxCell>
        <mxCell id="K-P_sbO5GFcDNKbz2QmL-16" value="" style="rounded=0;whiteSpace=wrap;html=1;" vertex="1" parent="1">
          <mxGeometry x="60" y="100" width="380" height="170" as="geometry" />
        </mxCell>
        <mxCell id="K-P_sbO5GFcDNKbz2QmL-17" value="&lt;div align=&quot;left&quot;&gt;solange kein Dateiende der Eingabedatei&lt;/div&gt;" style="text;html=1;align=left;verticalAlign=middle;whiteSpace=wrap;rounded=0;" vertex="1" parent="1">
          <mxGeometry x="40" y="80" width="400" height="20" as="geometry" />
        </mxCell>
        <mxCell id="K-P_sbO5GFcDNKbz2QmL-18" value="lies nächsten Datensatz" style="rounded=0;whiteSpace=wrap;html=1;align=left;" vertex="1" parent="1">
          <mxGeometry x="60" y="100" width="380" height="20" as="geometry" />
        </mxCell>
        <mxCell id="K-P_sbO5GFcDNKbz2QmL-19" value="berechne datensatz.Split(&#39;,&#39;), konvertiere das Ergebnis in Zahlen und speichere es in Array &quot;daten&quot;" style="rounded=0;whiteSpace=wrap;html=1;align=left;" vertex="1" parent="1">
          <mxGeometry x="60" y="120" width="380" height="40" as="geometry" />
        </mxCell>
        <mxCell id="K-P_sbO5GFcDNKbz2QmL-20" value="für i=0 bis 9" style="text;html=1;align=left;verticalAlign=middle;whiteSpace=wrap;rounded=0;" vertex="1" parent="1">
          <mxGeometry x="60" y="160" width="380" height="20" as="geometry" />
        </mxCell>
        <mxCell id="K-P_sbO5GFcDNKbz2QmL-21" value="" style="rounded=0;whiteSpace=wrap;html=1;" vertex="1" parent="1">
          <mxGeometry x="80" y="180" width="360" height="90" as="geometry" />
        </mxCell>
        <mxCell id="K-P_sbO5GFcDNKbz2QmL-22" value="daten[i] ungleich 0" style="rounded=0;whiteSpace=wrap;html=1;" vertex="1" parent="1">
          <mxGeometry x="80" y="180" width="360" height="50" as="geometry" />
        </mxCell>
        <mxCell id="K-P_sbO5GFcDNKbz2QmL-23" value="erhöhe ergebnis[i] um daten[i]" style="rounded=0;whiteSpace=wrap;html=1;align=left;" vertex="1" parent="1">
          <mxGeometry x="80" y="230" width="180" height="20" as="geometry" />
        </mxCell>
        <mxCell id="K-P_sbO5GFcDNKbz2QmL-24" value="erhöhe anzahl[i] um 1" style="rounded=0;whiteSpace=wrap;html=1;align=left;" vertex="1" parent="1">
          <mxGeometry x="80" y="250" width="180" height="20" as="geometry" />
        </mxCell>
        <mxCell id="K-P_sbO5GFcDNKbz2QmL-25" value="" style="endArrow=none;html=1;rounded=0;entryX=0;entryY=0;entryDx=0;entryDy=0;exitX=0.5;exitY=1;exitDx=0;exitDy=0;" edge="1" parent="1" source="K-P_sbO5GFcDNKbz2QmL-22" target="K-P_sbO5GFcDNKbz2QmL-22">
          <mxGeometry width="50" height="50" relative="1" as="geometry">
            <mxPoint x="130" y="250" as="sourcePoint" />
            <mxPoint x="180" y="200" as="targetPoint" />
          </mxGeometry>
        </mxCell>
        <mxCell id="K-P_sbO5GFcDNKbz2QmL-26" value="" style="endArrow=none;html=1;rounded=0;entryX=1;entryY=0;entryDx=0;entryDy=0;exitX=1;exitY=0;exitDx=0;exitDy=0;" edge="1" parent="1" source="K-P_sbO5GFcDNKbz2QmL-23" target="K-P_sbO5GFcDNKbz2QmL-22">
          <mxGeometry width="50" height="50" relative="1" as="geometry">
            <mxPoint x="300" y="270" as="sourcePoint" />
            <mxPoint x="350" y="220" as="targetPoint" />
          </mxGeometry>
        </mxCell>
        <mxCell id="K-P_sbO5GFcDNKbz2QmL-27" value="J" style="text;html=1;align=center;verticalAlign=middle;whiteSpace=wrap;rounded=0;" vertex="1" parent="1">
          <mxGeometry x="80" y="200" width="60" height="30" as="geometry" />
        </mxCell>
        <mxCell id="K-P_sbO5GFcDNKbz2QmL-28" value="N" style="text;html=1;align=center;verticalAlign=middle;whiteSpace=wrap;rounded=0;" vertex="1" parent="1">
          <mxGeometry x="380" y="200" width="60" height="30" as="geometry" />
        </mxCell>
        <mxCell id="K-P_sbO5GFcDNKbz2QmL-29" value="" style="rounded=0;whiteSpace=wrap;html=1;" vertex="1" parent="1">
          <mxGeometry x="40" y="270" width="400" height="130" as="geometry" />
        </mxCell>
        <mxCell id="K-P_sbO5GFcDNKbz2QmL-30" value="" style="rounded=0;whiteSpace=wrap;html=1;" vertex="1" parent="1">
          <mxGeometry x="60" y="290" width="380" height="110" as="geometry" />
        </mxCell>
        <mxCell id="K-P_sbO5GFcDNKbz2QmL-31" value="für i=0 bis 9" style="text;html=1;align=left;verticalAlign=middle;whiteSpace=wrap;rounded=0;" vertex="1" parent="1">
          <mxGeometry x="40" y="270" width="400" height="20" as="geometry" />
        </mxCell>
        <mxCell id="K-P_sbO5GFcDNKbz2QmL-32" value="anzahl[i] ungleich 0" style="rounded=0;whiteSpace=wrap;html=1;" vertex="1" parent="1">
          <mxGeometry x="60" y="290" width="380" height="50" as="geometry" />
        </mxCell>
        <mxCell id="K-P_sbO5GFcDNKbz2QmL-33" value="" style="endArrow=none;html=1;rounded=0;entryX=1;entryY=0;entryDx=0;entryDy=0;exitX=0.5;exitY=1;exitDx=0;exitDy=0;" edge="1" parent="1" source="K-P_sbO5GFcDNKbz2QmL-32" target="K-P_sbO5GFcDNKbz2QmL-32">
          <mxGeometry width="50" height="50" relative="1" as="geometry">
            <mxPoint x="280" y="410" as="sourcePoint" />
            <mxPoint x="330" y="360" as="targetPoint" />
          </mxGeometry>
        </mxCell>
        <mxCell id="K-P_sbO5GFcDNKbz2QmL-34" value="" style="endArrow=none;html=1;rounded=0;exitX=0;exitY=0;exitDx=0;exitDy=0;entryX=0.5;entryY=1;entryDx=0;entryDy=0;" edge="1" parent="1" source="K-P_sbO5GFcDNKbz2QmL-32" target="K-P_sbO5GFcDNKbz2QmL-32">
          <mxGeometry width="50" height="50" relative="1" as="geometry">
            <mxPoint x="90" y="420" as="sourcePoint" />
            <mxPoint x="140" y="370" as="targetPoint" />
          </mxGeometry>
        </mxCell>
        <mxCell id="K-P_sbO5GFcDNKbz2QmL-35" value="J" style="text;html=1;align=center;verticalAlign=middle;whiteSpace=wrap;rounded=0;" vertex="1" parent="1">
          <mxGeometry x="60" y="310" width="60" height="30" as="geometry" />
        </mxCell>
        <mxCell id="K-P_sbO5GFcDNKbz2QmL-38" value="N" style="text;html=1;align=center;verticalAlign=middle;whiteSpace=wrap;rounded=0;" vertex="1" parent="1">
          <mxGeometry x="380" y="310" width="60" height="30" as="geometry" />
        </mxCell>
        <mxCell id="K-P_sbO5GFcDNKbz2QmL-39" value="&lt;div align=&quot;left&quot;&gt;setze ergebnis[i] auf ergebnis[i] dividiert durch anzahl[i]&lt;/div&gt;" style="rounded=0;whiteSpace=wrap;html=1;align=left;" vertex="1" parent="1">
          <mxGeometry x="60" y="340" width="190" height="60" as="geometry" />
        </mxCell>
        <mxCell id="K-P_sbO5GFcDNKbz2QmL-40" value="" style="rounded=0;whiteSpace=wrap;html=1;" vertex="1" parent="1">
          <mxGeometry x="250" y="340" width="190" height="60" as="geometry" />
        </mxCell>
        <mxCell id="K-P_sbO5GFcDNKbz2QmL-41" value="Rückgabe: ergebnis" style="text;html=1;align=left;verticalAlign=middle;whiteSpace=wrap;rounded=0;" vertex="1" parent="1">
          <mxGeometry x="40" y="400" width="400" height="20" as="geometry" />
        </mxCell>
        <mxCell id="K-P_sbO5GFcDNKbz2QmL-43" value="Durchschnittsberechnung" style="text;html=1;align=left;verticalAlign=middle;whiteSpace=wrap;rounded=0;" vertex="1" parent="1">
          <mxGeometry x="20" y="20" width="420" height="20" as="geometry" />
        </mxCell>
      </root>
    </mxGraphModel>
  </diagram>
</mxfile>
